<mxfile host="app.diagrams.net" modified="2023-06-16T01:22:05.976Z" agent="Mozilla/5.0 (Windows NT 10.0; Win64; x64) AppleWebKit/537.36 (KHTML, like Gecko) Chrome/114.0.0.0 Safari/537.36" etag="JxrKeW4lmdntBXUbBALZ" version="21.3.2" type="github">
  <diagram name="Page-1" id="BjDxbJGl6HpooBOEAQK-">
    <mxGraphModel dx="983" dy="430" grid="1" gridSize="10" guides="1" tooltips="1" connect="1" arrows="1" fold="1" page="1" pageScale="1" pageWidth="850" pageHeight="1100" math="0" shadow="0">
      <root>
        <mxCell id="0" />
        <mxCell id="1" parent="0" />
        <mxCell id="tCXMWx5AZhY54S_LCSo5-1" value="banquinho" style="swimlane;fontStyle=0;childLayout=stackLayout;horizontal=1;startSize=26;fillColor=none;horizontalStack=0;resizeParent=1;resizeParentMax=0;resizeLast=0;collapsible=1;marginBottom=0;whiteSpace=wrap;html=1;" parent="1" vertex="1">
          <mxGeometry x="400" y="290" width="140" height="52" as="geometry" />
        </mxCell>
        <mxCell id="tCXMWx5AZhY54S_LCSo5-5" value="saque: Saque" style="swimlane;fontStyle=0;childLayout=stackLayout;horizontal=1;startSize=26;fillColor=none;horizontalStack=0;resizeParent=1;resizeParentMax=0;resizeLast=0;collapsible=1;marginBottom=0;whiteSpace=wrap;html=1;" parent="1" vertex="1">
          <mxGeometry x="660" y="20" width="140" height="70" as="geometry" />
        </mxCell>
        <mxCell id="tCXMWx5AZhY54S_LCSo5-6" value="&lt;div&gt;tipo: saque&lt;br&gt;&lt;/div&gt;&lt;div&gt;valor: 100.00&lt;br&gt;&lt;/div&gt;" style="text;strokeColor=none;fillColor=none;align=left;verticalAlign=top;spacingLeft=4;spacingRight=4;overflow=hidden;rotatable=0;points=[[0,0.5],[1,0.5]];portConstraint=eastwest;whiteSpace=wrap;html=1;" parent="tCXMWx5AZhY54S_LCSo5-5" vertex="1">
          <mxGeometry y="26" width="140" height="44" as="geometry" />
        </mxCell>
        <mxCell id="tCXMWx5AZhY54S_LCSo5-9" value="deposio: Deposito" style="swimlane;fontStyle=0;childLayout=stackLayout;horizontal=1;startSize=26;fillColor=none;horizontalStack=0;resizeParent=1;resizeParentMax=0;resizeLast=0;collapsible=1;marginBottom=0;whiteSpace=wrap;html=1;" parent="1" vertex="1">
          <mxGeometry x="660" y="100" width="140" height="70" as="geometry" />
        </mxCell>
        <mxCell id="tCXMWx5AZhY54S_LCSo5-10" value="&lt;div&gt;tipo: deposito&lt;/div&gt;&lt;div&gt;valor: 200.00&lt;br&gt;&lt;/div&gt;" style="text;strokeColor=none;fillColor=none;align=left;verticalAlign=top;spacingLeft=4;spacingRight=4;overflow=hidden;rotatable=0;points=[[0,0.5],[1,0.5]];portConstraint=eastwest;whiteSpace=wrap;html=1;" parent="tCXMWx5AZhY54S_LCSo5-9" vertex="1">
          <mxGeometry y="26" width="140" height="44" as="geometry" />
        </mxCell>
        <mxCell id="tCXMWx5AZhY54S_LCSo5-13" value="solicitacao: SolicitarCredito" style="swimlane;fontStyle=0;childLayout=stackLayout;horizontal=1;startSize=26;fillColor=none;horizontalStack=0;resizeParent=1;resizeParentMax=0;resizeLast=0;collapsible=1;marginBottom=0;whiteSpace=wrap;html=1;" parent="1" vertex="1">
          <mxGeometry x="660" y="300" width="140" height="120" as="geometry" />
        </mxCell>
        <mxCell id="tCXMWx5AZhY54S_LCSo5-14" value="&lt;div&gt;nome: João&lt;br&gt;&lt;/div&gt;&lt;div&gt;tipo: pessoa fisica&lt;br&gt;&lt;/div&gt;&lt;div&gt;cpf_cnpj: 235667&lt;/div&gt;&lt;div&gt;saldo: 0.00&lt;/div&gt;&lt;div&gt;pedidoDeCredito: 1000000.00&lt;br&gt;&lt;/div&gt;" style="text;strokeColor=none;fillColor=none;align=left;verticalAlign=top;spacingLeft=4;spacingRight=4;overflow=hidden;rotatable=0;points=[[0,0.5],[1,0.5]];portConstraint=eastwest;whiteSpace=wrap;html=1;" parent="tCXMWx5AZhY54S_LCSo5-13" vertex="1">
          <mxGeometry y="26" width="140" height="94" as="geometry" />
        </mxCell>
        <mxCell id="tCXMWx5AZhY54S_LCSo5-17" value="pagProg: PagProgramado" style="swimlane;fontStyle=0;childLayout=stackLayout;horizontal=1;startSize=26;fillColor=none;horizontalStack=0;resizeParent=1;resizeParentMax=0;resizeLast=0;collapsible=1;marginBottom=0;whiteSpace=wrap;html=1;" parent="1" vertex="1">
          <mxGeometry x="660" y="179" width="140" height="100" as="geometry" />
        </mxCell>
        <mxCell id="tCXMWx5AZhY54S_LCSo5-18" value="&lt;div&gt;tipo: pagamento programado&lt;/div&gt;&lt;div&gt;valor: 50.00&lt;/div&gt;&lt;div&gt;data: 31/02&lt;br&gt;&lt;/div&gt;" style="text;strokeColor=none;fillColor=none;align=left;verticalAlign=top;spacingLeft=4;spacingRight=4;overflow=hidden;rotatable=0;points=[[0,0.5],[1,0.5]];portConstraint=eastwest;whiteSpace=wrap;html=1;" parent="tCXMWx5AZhY54S_LCSo5-17" vertex="1">
          <mxGeometry y="26" width="140" height="74" as="geometry" />
        </mxCell>
        <mxCell id="tCXMWx5AZhY54S_LCSo5-21" value="controle" style="swimlane;fontStyle=0;childLayout=stackLayout;horizontal=1;startSize=26;fillColor=none;horizontalStack=0;resizeParent=1;resizeParentMax=0;resizeLast=0;collapsible=1;marginBottom=0;whiteSpace=wrap;html=1;" parent="1" vertex="1">
          <mxGeometry x="410" y="179" width="140" height="52" as="geometry" />
        </mxCell>
        <mxCell id="tCXMWx5AZhY54S_LCSo5-22" value="banquinho" style="text;strokeColor=none;fillColor=none;align=left;verticalAlign=top;spacingLeft=4;spacingRight=4;overflow=hidden;rotatable=0;points=[[0,0.5],[1,0.5]];portConstraint=eastwest;whiteSpace=wrap;html=1;" parent="tCXMWx5AZhY54S_LCSo5-21" vertex="1">
          <mxGeometry y="26" width="140" height="26" as="geometry" />
        </mxCell>
        <mxCell id="tCXMWx5AZhY54S_LCSo5-25" value="João: Cliente" style="swimlane;fontStyle=0;childLayout=stackLayout;horizontal=1;startSize=26;fillColor=none;horizontalStack=0;resizeParent=1;resizeParentMax=0;resizeLast=0;collapsible=1;marginBottom=0;whiteSpace=wrap;html=1;" parent="1" vertex="1">
          <mxGeometry x="660" y="440" width="140" height="140" as="geometry" />
        </mxCell>
        <mxCell id="tCXMWx5AZhY54S_LCSo5-26" value="&lt;div&gt;nome: João&lt;br&gt;&lt;/div&gt;&lt;div&gt;tipo: pessoa fisica&lt;br&gt;&lt;/div&gt;&lt;div&gt;cpf_cnpj: 235667&lt;br&gt;&lt;/div&gt;&lt;div&gt;telefone:65677890&lt;/div&gt;&lt;div&gt;saldo:0.00&lt;/div&gt;&lt;div&gt;operaçoes[]&lt;/div&gt;&lt;div&gt;senha:senha123&lt;br&gt;&lt;/div&gt;" style="text;strokeColor=none;fillColor=none;align=left;verticalAlign=top;spacingLeft=4;spacingRight=4;overflow=hidden;rotatable=0;points=[[0,0.5],[1,0.5]];portConstraint=eastwest;whiteSpace=wrap;html=1;" parent="tCXMWx5AZhY54S_LCSo5-25" vertex="1">
          <mxGeometry y="26" width="140" height="114" as="geometry" />
        </mxCell>
        <mxCell id="tCXMWx5AZhY54S_LCSo5-33" value="senha123: Senha" style="swimlane;fontStyle=0;childLayout=stackLayout;horizontal=1;startSize=26;fillColor=none;horizontalStack=0;resizeParent=1;resizeParentMax=0;resizeLast=0;collapsible=1;marginBottom=0;whiteSpace=wrap;html=1;" parent="1" vertex="1">
          <mxGeometry x="660" y="590" width="140" height="70" as="geometry" />
        </mxCell>
        <mxCell id="tCXMWx5AZhY54S_LCSo5-34" value="&lt;div&gt;cpf_cnpj: 235667&lt;/div&gt;&lt;div&gt;senha: senha123&lt;/div&gt;" style="text;strokeColor=none;fillColor=none;align=left;verticalAlign=top;spacingLeft=4;spacingRight=4;overflow=hidden;rotatable=0;points=[[0,0.5],[1,0.5]];portConstraint=eastwest;whiteSpace=wrap;html=1;" parent="tCXMWx5AZhY54S_LCSo5-33" vertex="1">
          <mxGeometry y="26" width="140" height="44" as="geometry" />
        </mxCell>
        <mxCell id="tCXMWx5AZhY54S_LCSo5-37" value="1" style="endArrow=open;html=1;endSize=12;startArrow=diamondThin;startSize=14;startFill=1;edgeStyle=orthogonalEdgeStyle;align=left;verticalAlign=bottom;rounded=0;exitX=1;exitY=0.5;exitDx=0;exitDy=0;" parent="1" source="tCXMWx5AZhY54S_LCSo5-22" target="tCXMWx5AZhY54S_LCSo5-14" edge="1">
          <mxGeometry x="-1" y="3" relative="1" as="geometry">
            <mxPoint x="150" y="150" as="sourcePoint" />
            <mxPoint x="310" y="150" as="targetPoint" />
          </mxGeometry>
        </mxCell>
        <mxCell id="tCXMWx5AZhY54S_LCSo5-39" value="1" style="endArrow=open;html=1;endSize=12;startArrow=diamondThin;startSize=14;startFill=1;edgeStyle=orthogonalEdgeStyle;align=left;verticalAlign=bottom;rounded=0;exitX=1;exitY=0.75;exitDx=0;exitDy=0;" parent="1" source="tCXMWx5AZhY54S_LCSo5-21" target="tCXMWx5AZhY54S_LCSo5-10" edge="1">
          <mxGeometry x="-1" y="3" relative="1" as="geometry">
            <mxPoint x="240" y="70" as="sourcePoint" />
            <mxPoint x="390" y="70" as="targetPoint" />
          </mxGeometry>
        </mxCell>
        <mxCell id="tCXMWx5AZhY54S_LCSo5-40" value="1" style="endArrow=open;html=1;endSize=12;startArrow=diamondThin;startSize=14;startFill=1;edgeStyle=orthogonalEdgeStyle;align=left;verticalAlign=bottom;rounded=0;exitX=1;exitY=0.5;exitDx=0;exitDy=0;entryX=0;entryY=0.5;entryDx=0;entryDy=0;" parent="1" source="tCXMWx5AZhY54S_LCSo5-22" target="tCXMWx5AZhY54S_LCSo5-26" edge="1">
          <mxGeometry x="-1" y="3" relative="1" as="geometry">
            <mxPoint x="110" y="190" as="sourcePoint" />
            <mxPoint x="390" y="190" as="targetPoint" />
          </mxGeometry>
        </mxCell>
        <mxCell id="tCXMWx5AZhY54S_LCSo5-41" value="1" style="endArrow=open;html=1;endSize=12;startArrow=diamondThin;startSize=14;startFill=1;edgeStyle=orthogonalEdgeStyle;align=left;verticalAlign=bottom;rounded=0;exitX=1;exitY=0.75;exitDx=0;exitDy=0;entryX=-0.036;entryY=0.182;entryDx=0;entryDy=0;entryPerimeter=0;" parent="1" source="tCXMWx5AZhY54S_LCSo5-21" target="tCXMWx5AZhY54S_LCSo5-34" edge="1">
          <mxGeometry x="-1" y="3" relative="1" as="geometry">
            <mxPoint x="100" y="220" as="sourcePoint" />
            <mxPoint x="520" y="440" as="targetPoint" />
          </mxGeometry>
        </mxCell>
        <mxCell id="tCXMWx5AZhY54S_LCSo5-42" value="1" style="endArrow=open;html=1;endSize=12;startArrow=diamondThin;startSize=14;startFill=1;edgeStyle=orthogonalEdgeStyle;align=left;verticalAlign=bottom;rounded=0;exitX=0.507;exitY=1.038;exitDx=0;exitDy=0;exitPerimeter=0;entryX=0.5;entryY=0;entryDx=0;entryDy=0;" parent="1" source="tCXMWx5AZhY54S_LCSo5-22" target="tCXMWx5AZhY54S_LCSo5-1" edge="1">
          <mxGeometry x="-1" y="3" relative="1" as="geometry">
            <mxPoint x="80" y="260" as="sourcePoint" />
            <mxPoint x="240" y="260" as="targetPoint" />
          </mxGeometry>
        </mxCell>
        <mxCell id="tCXMWx5AZhY54S_LCSo5-43" value="1" style="endArrow=open;html=1;endSize=12;startArrow=diamondThin;startSize=14;startFill=1;edgeStyle=orthogonalEdgeStyle;align=left;verticalAlign=bottom;rounded=0;exitX=1;exitY=0.75;exitDx=0;exitDy=0;entryX=0;entryY=0.205;entryDx=0;entryDy=0;entryPerimeter=0;" parent="1" source="tCXMWx5AZhY54S_LCSo5-21" target="tCXMWx5AZhY54S_LCSo5-6" edge="1">
          <mxGeometry x="-1" y="3" relative="1" as="geometry">
            <mxPoint x="470" y="134.5" as="sourcePoint" />
            <mxPoint x="630" y="134.5" as="targetPoint" />
          </mxGeometry>
        </mxCell>
        <mxCell id="tCXMWx5AZhY54S_LCSo5-44" value="1" style="endArrow=open;html=1;endSize=12;startArrow=diamondThin;startSize=14;startFill=1;edgeStyle=orthogonalEdgeStyle;align=left;verticalAlign=bottom;rounded=0;exitX=1;exitY=0.5;exitDx=0;exitDy=0;entryX=-0.007;entryY=0.176;entryDx=0;entryDy=0;entryPerimeter=0;" parent="1" source="tCXMWx5AZhY54S_LCSo5-22" target="tCXMWx5AZhY54S_LCSo5-18" edge="1">
          <mxGeometry x="-1" y="3" relative="1" as="geometry">
            <mxPoint x="220" y="100" as="sourcePoint" />
            <mxPoint x="380" y="100" as="targetPoint" />
          </mxGeometry>
        </mxCell>
      </root>
    </mxGraphModel>
  </diagram>
</mxfile>
